<svg width="60" height="60" viewBox="0 0 60 60" fill="none" xmlns="http://www.w3.org/2000/svg">
<path d="M30 0.00187498C13.4269 0.00187498 0 13.44 0 30.0019C0 43.2637 8.595 54.5044 20.5069 58.47C22.0125 58.7531 22.5562 57.825 22.5562 57.0225C22.5562 56.31 22.5394 54.4256 22.5281 51.9244C14.1788 53.7319 12.42 47.8912 12.42 47.8912C11.0531 44.4337 9.08062 43.5056 9.08062 43.5056C6.36562 41.6512 9.29625 41.6906 9.29625 41.6906C12.3038 41.895 13.8863 44.775 13.8863 44.775C16.5619 49.365 20.9063 48.0375 22.6256 47.265C22.8881 45.3319 23.67 44.0025 24.5213 43.2619C17.8613 42.51 10.8581 39.9319 10.8581 28.4362C10.8581 25.1531 12.0206 22.4794 13.9425 20.3794C13.6106 19.6275 12.5944 16.5712 14.2069 12.4387C14.2069 12.4387 16.7175 11.6381 22.4569 15.5156C24.8588 14.85 27.4088 14.5181 29.9569 14.5012C32.5069 14.5181 35.055 14.8519 37.4569 15.5156C43.1625 11.6381 45.6712 12.4387 45.6712 12.4387C47.2819 16.5712 46.2656 19.6256 45.9731 20.3794C47.8762 22.4794 49.0387 25.155 49.0387 28.4362C49.0387 39.9581 42.0262 42.4987 35.3587 43.2319C36.4012 44.13 37.3781 45.9769 37.3781 48.78C37.3781 52.7925 37.3406 56.025 37.3406 57.0019C37.3406 57.7819 37.8656 58.7194 39.4106 58.4175C51.4106 54.4931 59.9962 43.2431 59.9962 30C59.9962 13.4381 46.5694 0 29.9963 0L30 0.00187498Z" fill="white"/>
</svg>
