<svg width="60" height="60" viewBox="0 0 60 60" fill="none" xmlns="http://www.w3.org/2000/svg">
<path d="M30 1.00187L30.0004 1C46.0191 1.00227 58.9963 13.9916 58.9963 30C58.9963 42.7765 50.7292 53.6344 39.1625 57.4464C38.6535 57.5345 38.4964 57.4004 38.468 57.3746C38.4071 57.3194 38.3406 57.1926 38.3406 57.0019C38.3406 56.6827 38.3447 56.12 38.3501 55.3618C38.3529 54.9698 38.3561 54.5256 38.3594 54.0358C38.3687 52.6029 38.3781 50.7893 38.3781 48.78C38.3781 46.79 37.921 45.178 37.2352 43.9864C40.0939 43.5175 43.0078 42.6013 45.3413 40.6464C48.2079 38.2447 50.0387 34.4157 50.0387 28.4362C50.0387 25.1263 48.9354 22.3647 47.1053 20.1589C47.5191 18.7952 48.0682 15.8351 46.603 12.0756L46.4297 11.6311L45.9753 11.4861L45.6712 12.4387C45.9753 11.4861 45.9743 11.4858 45.9733 11.4855L45.9713 11.4848L45.9671 11.4835L45.958 11.4807L45.9369 11.4746C45.9215 11.4702 45.9036 11.4654 45.8831 11.4603C45.842 11.4501 45.7907 11.4387 45.729 11.4277C45.6055 11.4055 45.4411 11.3844 45.2347 11.3752C44.8212 11.3568 44.2445 11.386 43.496 11.5449C42.0663 11.8484 40.0177 12.6229 37.277 14.4325C34.9171 13.8231 32.4383 13.5176 29.9635 13.5013V13.5012L29.9503 13.5013C27.4773 13.5176 24.9961 13.8215 22.6349 14.4327C19.8778 12.6224 17.8205 11.8481 16.3866 11.5448C15.6361 11.386 15.0584 11.3568 14.6444 11.3752C14.4377 11.3844 14.2731 11.4055 14.1495 11.4276C14.0877 11.4387 14.0364 11.45 13.9953 11.4602C13.9748 11.4653 13.9569 11.4701 13.9415 11.4745L13.9203 11.4807L13.9112 11.4835L13.907 11.4848L13.905 11.4854C13.904 11.4857 13.9031 11.486 14.2069 12.4387L13.9031 11.486L13.4487 11.6309L13.2753 12.0752C11.8158 15.8155 12.3483 18.7741 12.7979 20.1696C10.9572 22.3742 9.85812 25.1311 9.85812 28.4362C9.85812 34.403 11.6868 38.2333 14.548 40.6429C16.8796 42.6063 19.792 43.5339 22.6503 44.0118C22.2438 44.7181 21.9217 45.5682 21.7298 46.5535C20.9347 46.854 19.8381 47.1357 18.703 47.0349C17.3845 46.9177 15.9243 46.2812 14.7543 44.2784L14.752 44.2744C14.7469 44.2652 14.7401 44.2534 14.7317 44.239C14.7149 44.2102 14.6916 44.1712 14.6619 44.1233C14.6026 44.0277 14.517 43.8962 14.4054 43.7401C14.1832 43.4294 13.8526 43.0142 13.4139 42.5903C12.5435 41.7492 11.1855 40.8167 9.36405 40.6929L9.3369 40.6911L9.30968 40.6907L9.29625 41.6906C9.30968 40.6907 9.30937 40.6907 9.30904 40.6907L9.30833 40.6907L9.3067 40.6907L9.30261 40.6906L9.2912 40.6906L9.2561 40.6907C9.22754 40.6909 9.18864 40.6915 9.14163 40.6931C9.04852 40.6963 8.91911 40.7034 8.77257 40.7193C8.51896 40.7469 8.06351 40.8147 7.67882 41.0318C7.47622 41.1462 7.19999 41.354 7.04166 41.7109C6.86906 42.0999 6.90972 42.4974 7.04576 42.8241C7.17112 43.1252 7.38168 43.3849 7.60988 43.6089C7.8453 43.84 8.14732 44.0792 8.51662 44.3314L8.58258 44.3764L8.64552 44.4061C8.65008 44.4085 8.65984 44.4137 8.6744 44.4219C8.70782 44.4409 8.76654 44.476 8.84578 44.5302C9.00414 44.6384 9.24505 44.8233 9.5305 45.1089C10.0954 45.6739 10.848 46.6465 11.4783 48.2293C11.4837 48.2457 11.4905 48.2656 11.4986 48.2888C11.519 48.3465 11.5481 48.4247 11.5874 48.5199C11.6658 48.71 11.7851 48.9694 11.956 49.27C12.2971 49.8698 12.8502 50.6444 13.7034 51.3543C15.2871 52.672 17.7769 53.6616 21.5341 53.12C21.5384 53.9039 21.5429 54.6025 21.5467 55.1947C21.5522 56.0432 21.5562 56.6732 21.5562 57.0225C21.5562 57.2209 21.4871 57.3552 21.4207 57.416C21.3865 57.4473 21.232 57.5755 20.7535 57.498C9.27396 53.6439 1 42.7948 1 30.0019C1 13.992 13.9794 1.00187 30 1.00187Z" fill="#028F4B" stroke="white" stroke-width="2"/>
</svg>
