<svg width="60" height="60" viewBox="0 0 60 60" fill="none" xmlns="http://www.w3.org/2000/svg">
<g clip-path="url(#clip0_4_14)">
<path d="M29.9999 59.4619C46.2712 59.4619 59.4617 46.2714 59.4617 30C59.4617 13.7287 46.2712 0.538132 29.9999 0.538132C13.7285 0.538132 0.537994 13.7287 0.537994 30C0.537994 46.2714 13.7285 59.4619 29.9999 59.4619Z" fill="white"/>
<path d="M21.8109 24.9909H15.3789V44.3382H21.8109V24.9909Z" fill="#028F4B"/>
<path d="M18.6384 15.6618C16.4377 15.6618 15 17.1086 15 19.0048C15 20.8612 16.394 22.3479 18.5532 22.3479H18.5947C20.8375 22.3479 22.2335 20.8612 22.2335 19.0048C22.192 17.1086 20.8377 15.6618 18.6384 15.6618Z" fill="#028F4B"/>
<path d="M37.5959 24.5359C34.1841 24.5359 32.6559 26.4122 31.8001 27.73V24.9907H25.3698C25.455 26.8056 25.3698 44.338 25.3698 44.338H31.8001V33.5332C31.8001 32.9549 31.8416 32.3766 32.0122 31.9633C32.4764 30.8083 33.535 29.6119 35.3116 29.6119C37.6376 29.6119 38.5693 31.3866 38.5693 33.9864V44.338H45V33.2432C45 27.3005 41.827 24.5359 37.5959 24.5359Z" fill="#028F4B"/>
</g>
<defs>
<clipPath id="clip0_4_14">
<rect width="60" height="60" fill="white"/>
</clipPath>
</defs>
</svg>
