<svg width="77" height="36" viewBox="0 0 77 36" fill="none" xmlns="http://www.w3.org/2000/svg">
<path d="M10.1816 35.4883C8.42383 35.4883 6.79622 35.0326 5.29883 34.1211C3.80143 33.2096 2.60514 31.9889 1.70996 30.459C0.831055 28.9128 0.391602 27.2282 0.391602 25.4053L0.489258 0.405273C0.489258 0.275065 0.554362 0.209961 0.68457 0.209961H6.2998C6.43001 0.209961 6.49512 0.275065 6.49512 0.405273V25.4053C6.49512 26.5283 6.85319 27.4886 7.56934 28.2861C8.28548 29.0674 9.15625 29.458 10.1816 29.458C11.2559 29.458 12.151 29.0674 12.8672 28.2861C13.5833 27.4886 13.9414 26.5283 13.9414 25.4053V0.405273C13.9414 0.275065 14.0065 0.209961 14.1367 0.209961H19.752C19.8822 0.209961 19.9473 0.275065 19.9473 0.405273L20.0449 25.4053C20.0449 27.2445 19.6055 28.9372 18.7266 30.4834C17.8314 32.0133 16.6432 33.234 15.1621 34.1455C13.681 35.0407 12.0208 35.4883 10.1816 35.4883ZM28.0527 35H22.4375C22.3236 35 22.2747 34.9186 22.291 34.7559L28.0039 16.9092L22.3887 0.405273C22.3561 0.275065 22.4049 0.209961 22.5352 0.209961H28.1504C28.3132 0.209961 28.4108 0.275065 28.4434 0.405273L31.7881 12.2949L35.1816 0.405273C35.2142 0.275065 35.32 0.209961 35.499 0.209961H41.041C41.1712 0.209961 41.2201 0.275065 41.1875 0.405273L35.5967 16.8604L41.2363 34.7559C41.3014 34.9186 41.2526 35 41.0898 35H35.499C35.3525 35 35.2467 34.9186 35.1816 34.7559L31.7881 21.8408L28.3457 34.7559C28.3294 34.9186 28.2318 35 28.0527 35ZM66.3828 34.9512L57.4229 35C57.2601 35 57.1787 34.9186 57.1787 34.7559L57.2764 0.405273C57.2764 0.275065 57.3415 0.209961 57.4717 0.209961L66.8223 0.161133C68.6777 0.112305 70.3542 0.535482 71.8516 1.43066C73.3652 2.32585 74.5697 3.53841 75.4648 5.06836C76.3763 6.58203 76.832 8.25846 76.832 10.0977V24.4531C76.832 26.3737 76.3682 28.1315 75.4404 29.7266C74.4964 31.3053 73.2432 32.5667 71.6807 33.5107C70.1182 34.4385 68.3522 34.9186 66.3828 34.9512ZM66.8223 6.14258L63.3311 6.19141L63.2822 28.8477H66.3828C67.6198 28.8477 68.6615 28.4163 69.5078 27.5537C70.3542 26.6911 70.7773 25.6576 70.7773 24.4531V10.0488C70.7773 8.99089 70.3867 8.07129 69.6055 7.29004C68.8242 6.49251 67.8965 6.11003 66.8223 6.14258Z" fill="#19B168"/>
</svg>
