<svg width="60" height="60" viewBox="0 0 60 60" fill="none" xmlns="http://www.w3.org/2000/svg">
<g clip-path="url(#clip0_14_2)">
<path d="M30 60C46.5685 60 60 46.5685 60 30C60 13.4315 46.5685 0 30 0C13.4315 0 0 13.4315 0 30C0 46.5685 13.4315 60 30 60Z" fill="white"/>
<path d="M30 33.9375L47.9062 18.6094C47.625 18.4219 47.25 18.2812 46.875 18.2812H13.125C12.75 18.2812 12.375 18.4219 12.0938 18.6094L30 33.9375Z" fill="#028F4B"/>
<path d="M31.2187 35.3438C30.5156 35.9531 29.4844 35.9531 28.7813 35.3438L11.25 20.3906V39.8438C11.25 40.875 12.0937 41.7188 13.125 41.7188H46.875C47.9063 41.7188 48.75 40.875 48.75 39.8438V20.3438L31.2187 35.3438Z" fill="#028F4B"/>
</g>
<defs>
<clipPath id="clip0_14_2">
<rect width="60" height="60" fill="white"/>
</clipPath>
</defs>
</svg>
