<svg width="215" height="72" viewBox="0 0 215 72" fill="none" xmlns="http://www.w3.org/2000/svg">
<rect width="215" height="72" fill="white"/>
<path d="M35.536 11.68H32.976V32.704L29.68 36H16.816L13.52 32.704V11.68H10.96V10.4H23.44V11.68H20.88V34.72H28.976L31.536 32.16V11.68H28.976V10.4H35.536V11.68ZM64.948 34.72V36H50.772V34.72H53.844L48.372 25.632L41.844 34.72H44.852V36H37.364V34.72H40.116L47.572 24.32L39.988 11.68H37.78V10.4H51.892V11.68H48.884L53.492 19.328L58.996 11.68H55.924V10.4H63.412V11.68H60.724L54.292 20.64L62.74 34.72H64.948ZM98.2113 13.696V32.704L94.9153 36H75.1713V34.72H77.7313V11.68H75.1713V10.4H94.9153L98.2113 13.696ZM85.0913 11.68V34.72H90.8513V11.68H85.0913ZM104.389 36L101.413 33.024V19.776L104.389 16.8H116.677L119.653 19.776V25.024L116.677 28H108.773V34.72H116.133L118.821 32.032L119.812 33.024L116.837 36H104.389ZM108.773 18.08V26.72H112.293V18.08H108.773ZM124.298 36.32H122.858V29.44H124.298V31.84L127.178 34.72H133.93L123.178 23.328V19.456L125.834 16.8H135.274L137.45 18.976V16.48H138.89V23.36H137.45V20.96L134.57 18.08H128.458L139.21 29.472V33.344L136.554 36H126.474L124.298 33.824V36.32ZM147.902 14.24L143.038 9.344L147.934 4.48L152.798 9.376L147.902 14.24ZM154.558 34.72V36H147.614L144.638 33.024V18.08H142.078V16.8H149.022L151.998 19.776V34.72H154.558ZM176.628 16.8V41.024L173.652 44H159.444L156.788 41.344V37.6H163.988V42.72H169.268V32.544L167.732 34.08H159.924L156.948 31.104V19.776L159.924 16.8H167.732L170.004 19.04L172.244 16.8H176.628ZM169.268 30.56V20.32L167.028 18.08H164.148V32.8H167.028L169.268 30.56ZM203.179 34.72V36H195.915L193.259 33.344V18.08H191.019L188.779 20.32V34.72H190.379V36H178.859V34.72H181.419V18.08H178.859V16.8H185.803L188.075 19.04L190.315 16.8H197.643L200.619 19.776V34.72H203.179Z" fill="#19B168"/>
<path d="M2.14844 46.7363H5.24414L14.7559 51.7168V46.7363H17.8516V62H14.7559V54.998L5.24414 50.0469V62H2.14844V46.7363ZM21.2598 58.3672C21.2598 57.8138 21.3802 57.3092 21.6211 56.8535C21.862 56.3978 22.2233 56.0072 22.7051 55.6816C23.1868 55.3496 23.7858 55.0957 24.502 54.9199C25.2246 54.7376 26.0645 54.6465 27.0215 54.6465C27.7311 54.6465 28.4766 54.6986 29.2578 54.8027C30.0456 54.9069 30.8561 55.0664 31.6895 55.2812C31.6569 54.9167 31.5462 54.5814 31.3574 54.2754C31.1686 53.9629 30.9049 53.696 30.5664 53.4746C30.2344 53.2467 29.8307 53.071 29.3555 52.9473C28.8867 52.8236 28.3529 52.7617 27.7539 52.7617C27.4284 52.7617 27.0703 52.7812 26.6797 52.8203C26.2891 52.8594 25.8854 52.918 25.4688 52.9961C25.0521 53.0742 24.6387 53.1719 24.2285 53.2891C23.8249 53.4062 23.4473 53.5462 23.0957 53.709L22.2168 51.3359C22.653 51.1797 23.1185 51.0365 23.6133 50.9062C24.1146 50.776 24.6257 50.6654 25.1465 50.5742C25.6673 50.4766 26.1882 50.4017 26.709 50.3496C27.2298 50.2975 27.7344 50.2715 28.2227 50.2715C30.3776 50.2715 31.9792 50.8216 33.0273 51.9219C34.0755 53.0221 34.5996 54.7083 34.5996 56.9805V62H31.709V60.916C31.4095 61.0918 31.0807 61.2578 30.7227 61.4141C30.3711 61.5703 29.987 61.707 29.5703 61.8242C29.1536 61.9414 28.7044 62.0326 28.2227 62.0977C27.7474 62.1693 27.2428 62.2051 26.709 62.2051C25.8105 62.2051 25.0195 62.1074 24.3359 61.9121C23.6589 61.7168 23.0924 61.4466 22.6367 61.1016C22.181 60.7565 21.8359 60.3529 21.6016 59.8906C21.3737 59.4219 21.2598 58.9141 21.2598 58.3672ZM24.3066 58.2695C24.3066 58.4583 24.3555 58.6406 24.4531 58.8164C24.5508 58.9857 24.707 59.1387 24.9219 59.2754C25.1367 59.4056 25.4102 59.513 25.7422 59.5977C26.0807 59.6758 26.4876 59.7148 26.9629 59.7148C27.4707 59.7148 27.9622 59.6693 28.4375 59.5781C28.9128 59.487 29.3555 59.3665 29.7656 59.2168C30.1758 59.0671 30.5469 58.8945 30.8789 58.6992C31.2109 58.5039 31.4876 58.3021 31.709 58.0938V57.5859C31.2663 57.4622 30.8268 57.3581 30.3906 57.2734C29.9609 57.1888 29.5475 57.1237 29.1504 57.0781C28.7598 57.026 28.3887 56.9902 28.0371 56.9707C27.6921 56.9512 27.3893 56.9414 27.1289 56.9414C26.5885 56.9414 26.1393 56.9772 25.7812 57.0488C25.4232 57.1204 25.1335 57.2181 24.9121 57.3418C24.6908 57.459 24.5345 57.599 24.4434 57.7617C24.3522 57.9245 24.3066 58.0938 24.3066 58.2695ZM40.166 52.6445H37.3828V50.4766H40.166V46.8926H43.0566V50.4766H45.8398V52.6445H43.0566V62H40.166V52.6445ZM47.8613 58.3672C47.8613 57.8138 47.9818 57.3092 48.2227 56.8535C48.4635 56.3978 48.8249 56.0072 49.3066 55.6816C49.7884 55.3496 50.3874 55.0957 51.1035 54.9199C51.8262 54.7376 52.666 54.6465 53.623 54.6465C54.3327 54.6465 55.0781 54.6986 55.8594 54.8027C56.6471 54.9069 57.4577 55.0664 58.291 55.2812C58.2585 54.9167 58.1478 54.5814 57.959 54.2754C57.7702 53.9629 57.5065 53.696 57.168 53.4746C56.8359 53.2467 56.4323 53.071 55.957 52.9473C55.4883 52.8236 54.9544 52.7617 54.3555 52.7617C54.0299 52.7617 53.6719 52.7812 53.2812 52.8203C52.8906 52.8594 52.487 52.918 52.0703 52.9961C51.6536 53.0742 51.2402 53.1719 50.8301 53.2891C50.4264 53.4062 50.0488 53.5462 49.6973 53.709L48.8184 51.3359C49.2546 51.1797 49.7201 51.0365 50.2148 50.9062C50.7161 50.776 51.2272 50.6654 51.748 50.5742C52.2689 50.4766 52.7897 50.4017 53.3105 50.3496C53.8314 50.2975 54.3359 50.2715 54.8242 50.2715C56.9792 50.2715 58.5807 50.8216 59.6289 51.9219C60.6771 53.0221 61.2012 54.7083 61.2012 56.9805V62H58.3105V60.916C58.0111 61.0918 57.6823 61.2578 57.3242 61.4141C56.9727 61.5703 56.5885 61.707 56.1719 61.8242C55.7552 61.9414 55.306 62.0326 54.8242 62.0977C54.349 62.1693 53.8444 62.2051 53.3105 62.2051C52.4121 62.2051 51.6211 62.1074 50.9375 61.9121C50.2604 61.7168 49.694 61.4466 49.2383 61.1016C48.7826 60.7565 48.4375 60.3529 48.2031 59.8906C47.9753 59.4219 47.8613 58.9141 47.8613 58.3672ZM50.9082 58.2695C50.9082 58.4583 50.957 58.6406 51.0547 58.8164C51.1523 58.9857 51.3086 59.1387 51.5234 59.2754C51.7383 59.4056 52.0117 59.513 52.3438 59.5977C52.6823 59.6758 53.0892 59.7148 53.5645 59.7148C54.0723 59.7148 54.5638 59.6693 55.0391 59.5781C55.5143 59.487 55.957 59.3665 56.3672 59.2168C56.7773 59.0671 57.1484 58.8945 57.4805 58.6992C57.8125 58.5039 58.0892 58.3021 58.3105 58.0938V57.5859C57.8678 57.4622 57.4284 57.3581 56.9922 57.2734C56.5625 57.1888 56.1491 57.1237 55.752 57.0781C55.3613 57.026 54.9902 56.9902 54.6387 56.9707C54.2936 56.9512 53.9909 56.9414 53.7305 56.9414C53.1901 56.9414 52.7409 56.9772 52.3828 57.0488C52.0247 57.1204 51.735 57.2181 51.5137 57.3418C51.2923 57.459 51.1361 57.599 51.0449 57.7617C50.9538 57.9245 50.9082 58.0938 50.9082 58.2695ZM65.1074 45.7988H67.998V62H65.1074V45.7988ZM73.2324 48.9043C72.946 48.9043 72.6855 48.8652 72.4512 48.7871C72.2233 48.7025 72.028 48.5918 71.8652 48.4551C71.7025 48.3118 71.5755 48.1491 71.4844 47.9668C71.3997 47.778 71.3574 47.5794 71.3574 47.3711C71.3574 47.1562 71.3997 46.9577 71.4844 46.7754C71.5755 46.5866 71.7025 46.4238 71.8652 46.2871C72.028 46.1504 72.2233 46.043 72.4512 45.9648C72.6855 45.8802 72.946 45.8379 73.2324 45.8379C73.5254 45.8379 73.7858 45.8802 74.0137 45.9648C74.248 46.043 74.4466 46.1504 74.6094 46.2871C74.7721 46.4238 74.8958 46.5866 74.9805 46.7754C75.0716 46.9577 75.1172 47.1562 75.1172 47.3711C75.1172 47.5794 75.0716 47.778 74.9805 47.9668C74.8958 48.1491 74.7721 48.3118 74.6094 48.4551C74.4466 48.5918 74.248 48.7025 74.0137 48.7871C73.7858 48.8652 73.5254 48.9043 73.2324 48.9043ZM71.7871 50.4766H74.6777V62H71.7871V50.4766ZM79.7656 63.4453C80.0651 63.6406 80.3906 63.8132 80.7422 63.9629C81.0938 64.1126 81.4583 64.2363 81.8359 64.334C82.2201 64.4316 82.6107 64.5033 83.0078 64.5488C83.4049 64.6009 83.7988 64.627 84.1895 64.627C85.5176 64.627 86.5397 64.3405 87.2559 63.7676C87.9785 63.2012 88.3398 62.3483 88.3398 61.209V60.8184C88.0859 60.9941 87.7995 61.1569 87.4805 61.3066C87.168 61.4499 86.8294 61.5736 86.4648 61.6777C86.1068 61.7819 85.7259 61.8633 85.3223 61.9219C84.9251 61.974 84.5215 62 84.1113 62C83.2324 62 82.4447 61.873 81.748 61.6191C81.0579 61.3587 80.472 60.9811 79.9902 60.4863C79.515 59.985 79.1504 59.3698 78.8965 58.6406C78.6426 57.9115 78.5156 57.0781 78.5156 56.1406V50.4766H81.3965V55.3398C81.3965 56.7331 81.6602 57.7617 82.1875 58.4258C82.7214 59.0833 83.5612 59.4121 84.707 59.4121C85.5143 59.4121 86.2272 59.2721 86.8457 58.9922C87.4707 58.7057 87.9688 58.3411 88.3398 57.8984V50.4766H91.2305V60.6816C91.2305 61.7819 91.0742 62.7357 90.7617 63.543C90.4492 64.3568 89.9935 65.0306 89.3945 65.5645C88.8021 66.0983 88.0729 66.4954 87.207 66.7559C86.3411 67.0228 85.3581 67.1562 84.2578 67.1562C83.1836 67.1562 82.181 67.0423 81.25 66.8145C80.319 66.5866 79.4661 66.2773 78.6914 65.8867L79.7656 63.4453ZM94.4238 58.3672C94.4238 57.8138 94.5443 57.3092 94.7852 56.8535C95.026 56.3978 95.3874 56.0072 95.8691 55.6816C96.3509 55.3496 96.9499 55.0957 97.666 54.9199C98.3887 54.7376 99.2285 54.6465 100.186 54.6465C100.895 54.6465 101.641 54.6986 102.422 54.8027C103.21 54.9069 104.02 55.0664 104.854 55.2812C104.821 54.9167 104.71 54.5814 104.521 54.2754C104.333 53.9629 104.069 53.696 103.73 53.4746C103.398 53.2467 102.995 53.071 102.52 52.9473C102.051 52.8236 101.517 52.7617 100.918 52.7617C100.592 52.7617 100.234 52.7812 99.8438 52.8203C99.4531 52.8594 99.0495 52.918 98.6328 52.9961C98.2161 53.0742 97.8027 53.1719 97.3926 53.2891C96.9889 53.4062 96.6113 53.5462 96.2598 53.709L95.3809 51.3359C95.8171 51.1797 96.2826 51.0365 96.7773 50.9062C97.2786 50.776 97.7897 50.6654 98.3105 50.5742C98.8314 50.4766 99.3522 50.4017 99.873 50.3496C100.394 50.2975 100.898 50.2715 101.387 50.2715C103.542 50.2715 105.143 50.8216 106.191 51.9219C107.24 53.0221 107.764 54.7083 107.764 56.9805V62H104.873V60.916C104.574 61.0918 104.245 61.2578 103.887 61.4141C103.535 61.5703 103.151 61.707 102.734 61.8242C102.318 61.9414 101.868 62.0326 101.387 62.0977C100.911 62.1693 100.407 62.2051 99.873 62.2051C98.9746 62.2051 98.1836 62.1074 97.5 61.9121C96.8229 61.7168 96.2565 61.4466 95.8008 61.1016C95.3451 60.7565 95 60.3529 94.7656 59.8906C94.5378 59.4219 94.4238 58.9141 94.4238 58.3672ZM97.4707 58.2695C97.4707 58.4583 97.5195 58.6406 97.6172 58.8164C97.7148 58.9857 97.8711 59.1387 98.0859 59.2754C98.3008 59.4056 98.5742 59.513 98.9062 59.5977C99.2448 59.6758 99.6517 59.7148 100.127 59.7148C100.635 59.7148 101.126 59.6693 101.602 59.5781C102.077 59.487 102.52 59.3665 102.93 59.2168C103.34 59.0671 103.711 58.8945 104.043 58.6992C104.375 58.5039 104.652 58.3021 104.873 58.0938V57.5859C104.43 57.4622 103.991 57.3581 103.555 57.2734C103.125 57.1888 102.712 57.1237 102.314 57.0781C101.924 57.026 101.553 56.9902 101.201 56.9707C100.856 56.9512 100.553 56.9414 100.293 56.9414C99.7526 56.9414 99.3034 56.9772 98.9453 57.0488C98.5872 57.1204 98.2975 57.2181 98.0762 57.3418C97.8548 57.459 97.6986 57.599 97.6074 57.7617C97.5163 57.9245 97.4707 58.0938 97.4707 58.2695ZM118.594 46.7363H121.689V54.6367L129.746 46.7363H133.711L126.191 54.0215L133.711 62H129.59L123.965 56.1797L121.689 58.377V62H118.594V46.7363ZM134.873 50.4766H137.764V52.1367C138.402 51.6615 139.076 51.2513 139.785 50.9062C140.495 50.5612 141.201 50.2975 141.904 50.1152L142.754 52.7617C141.641 52.8724 140.661 53.123 139.814 53.5137C138.975 53.8978 138.291 54.4414 137.764 55.1445V62H134.873V50.4766ZM146.289 63.4453C146.589 63.6406 146.914 63.8132 147.266 63.9629C147.617 64.1126 147.982 64.2363 148.359 64.334C148.743 64.4316 149.134 64.5033 149.531 64.5488C149.928 64.6009 150.322 64.627 150.713 64.627C152.041 64.627 153.063 64.3405 153.779 63.7676C154.502 63.2012 154.863 62.3483 154.863 61.209V60.8184C154.609 60.9941 154.323 61.1569 154.004 61.3066C153.691 61.4499 153.353 61.5736 152.988 61.6777C152.63 61.7819 152.249 61.8633 151.846 61.9219C151.449 61.974 151.045 62 150.635 62C149.756 62 148.968 61.873 148.271 61.6191C147.581 61.3587 146.995 60.9811 146.514 60.4863C146.038 59.985 145.674 59.3698 145.42 58.6406C145.166 57.9115 145.039 57.0781 145.039 56.1406V50.4766H147.92V55.3398C147.92 56.7331 148.184 57.7617 148.711 58.4258C149.245 59.0833 150.085 59.4121 151.23 59.4121C152.038 59.4121 152.751 59.2721 153.369 58.9922C153.994 58.7057 154.492 58.3411 154.863 57.8984V50.4766H157.754V60.6816C157.754 61.7819 157.598 62.7357 157.285 63.543C156.973 64.3568 156.517 65.0306 155.918 65.5645C155.326 66.0983 154.596 66.4954 153.73 66.7559C152.865 67.0228 151.882 67.1562 150.781 67.1562C149.707 67.1562 148.704 67.0423 147.773 66.8145C146.842 66.5866 145.99 66.2773 145.215 65.8867L146.289 63.4453ZM161.572 45.7988H164.463V62H161.572V45.7988ZM167.48 56.2383C167.48 55.4115 167.646 54.6367 167.979 53.9141C168.317 53.1914 168.796 52.5599 169.414 52.0195C170.039 51.4792 170.791 51.0527 171.67 50.7402C172.555 50.4277 173.548 50.2715 174.648 50.2715C175.749 50.2715 176.738 50.4277 177.617 50.7402C178.503 51.0527 179.255 51.4792 179.873 52.0195C180.498 52.5599 180.977 53.1914 181.309 53.9141C181.647 54.6367 181.816 55.4115 181.816 56.2383C181.816 57.0651 181.647 57.8398 181.309 58.5625C180.977 59.2852 180.498 59.9167 179.873 60.457C179.255 60.9974 178.503 61.4238 177.617 61.7363C176.738 62.0488 175.749 62.2051 174.648 62.2051C173.548 62.2051 172.555 62.0488 171.67 61.7363C170.791 61.4238 170.039 60.9974 169.414 60.457C168.796 59.9167 168.317 59.2852 167.979 58.5625C167.646 57.8398 167.48 57.0651 167.48 56.2383ZM170.518 56.2383C170.518 56.7005 170.609 57.14 170.791 57.5566C170.98 57.9668 171.25 58.3314 171.602 58.6504C171.96 58.9629 172.393 59.2135 172.9 59.4023C173.415 59.5846 173.997 59.6758 174.648 59.6758C175.299 59.6758 175.879 59.5846 176.387 59.4023C176.901 59.2135 177.334 58.9629 177.686 58.6504C178.044 58.3314 178.314 57.9668 178.496 57.5566C178.685 57.14 178.779 56.7005 178.779 56.2383C178.779 55.776 178.685 55.3366 178.496 54.9199C178.314 54.5033 178.044 54.1387 177.686 53.8262C177.334 53.5072 176.901 53.2565 176.387 53.0742C175.879 52.8854 175.299 52.791 174.648 52.791C173.997 52.791 173.415 52.8854 172.9 53.0742C172.393 53.2565 171.96 53.5072 171.602 53.8262C171.25 54.1387 170.98 54.5033 170.791 54.9199C170.609 55.3366 170.518 55.776 170.518 56.2383ZM183.145 50.4668H186.494L189.492 57.4004L190.273 59.3438L191.055 57.4004L194.053 50.4668H197.402L191.943 62H188.604L183.145 50.4668ZM198.877 58.3672C198.877 57.8138 198.997 57.3092 199.238 56.8535C199.479 56.3978 199.84 56.0072 200.322 55.6816C200.804 55.3496 201.403 55.0957 202.119 54.9199C202.842 54.7376 203.682 54.6465 204.639 54.6465C205.348 54.6465 206.094 54.6986 206.875 54.8027C207.663 54.9069 208.473 55.0664 209.307 55.2812C209.274 54.9167 209.163 54.5814 208.975 54.2754C208.786 53.9629 208.522 53.696 208.184 53.4746C207.852 53.2467 207.448 53.071 206.973 52.9473C206.504 52.8236 205.97 52.7617 205.371 52.7617C205.046 52.7617 204.688 52.7812 204.297 52.8203C203.906 52.8594 203.503 52.918 203.086 52.9961C202.669 53.0742 202.256 53.1719 201.846 53.2891C201.442 53.4062 201.064 53.5462 200.713 53.709L199.834 51.3359C200.27 51.1797 200.736 51.0365 201.23 50.9062C201.732 50.776 202.243 50.6654 202.764 50.5742C203.285 50.4766 203.805 50.4017 204.326 50.3496C204.847 50.2975 205.352 50.2715 205.84 50.2715C207.995 50.2715 209.596 50.8216 210.645 51.9219C211.693 53.0221 212.217 54.7083 212.217 56.9805V62H209.326V60.916C209.027 61.0918 208.698 61.2578 208.34 61.4141C207.988 61.5703 207.604 61.707 207.188 61.8242C206.771 61.9414 206.322 62.0326 205.84 62.0977C205.365 62.1693 204.86 62.2051 204.326 62.2051C203.428 62.2051 202.637 62.1074 201.953 61.9121C201.276 61.7168 200.71 61.4466 200.254 61.1016C199.798 60.7565 199.453 60.3529 199.219 59.8906C198.991 59.4219 198.877 58.9141 198.877 58.3672ZM201.924 58.2695C201.924 58.4583 201.973 58.6406 202.07 58.8164C202.168 58.9857 202.324 59.1387 202.539 59.2754C202.754 59.4056 203.027 59.513 203.359 59.5977C203.698 59.6758 204.105 59.7148 204.58 59.7148C205.088 59.7148 205.579 59.6693 206.055 59.5781C206.53 59.487 206.973 59.3665 207.383 59.2168C207.793 59.0671 208.164 58.8945 208.496 58.6992C208.828 58.5039 209.105 58.3021 209.326 58.0938V57.5859C208.883 57.4622 208.444 57.3581 208.008 57.2734C207.578 57.1888 207.165 57.1237 206.768 57.0781C206.377 57.026 206.006 56.9902 205.654 56.9707C205.309 56.9512 205.007 56.9414 204.746 56.9414C204.206 56.9414 203.757 56.9772 203.398 57.0488C203.04 57.1204 202.751 57.2181 202.529 57.3418C202.308 57.459 202.152 57.599 202.061 57.7617C201.969 57.9245 201.924 58.0938 201.924 58.2695Z" fill="#028F4B"/>
</svg>
